<?xml version="1.0" standalone="no"?>
<!DOCTYPE svg PUBLIC "-//W3C//DTD SVG 20010904//EN"
 "http://www.w3.org/TR/2001/REC-SVG-20010904/DTD/svg10.dtd">
<svg version="1.0" xmlns="http://www.w3.org/2000/svg"
 width="512.000000pt" height="512.000000pt" viewBox="0 0 512.000000 512.000000"
 preserveAspectRatio="xMidYMid meet">

<g transform="translate(0.000000,512.000000) scale(0.100000,-0.100000)"
fill="#000000" stroke="none">
<path d="M1970 4790 c-554 -52 -1012 -230 -1275 -495 -150 -151 -210 -281
-210 -455 0 -174 60 -305 210 -455 402 -403 1239 -593 2045 -464 331 52 641
166 869 316 115 76 254 218 308 314 143 252 97 513 -132 744 -242 245 -637
410 -1145 480 -137 19 -534 28 -670 15z"/>
<path d="M480 2818 c0 -345 7 -402 59 -511 156 -326 620 -583 1216 -671 133
-20 321 -36 423 -36 l82 0 0 29 c0 16 7 66 16 112 51 268 188 544 380 763 l77
89 -54 -6 c-616 -70 -1230 8 -1693 215 -173 78 -309 162 -441 274 l-65 55 0
-313z"/>
<path d="M3615 2704 c-175 -32 -378 -116 -522 -216 -248 -174 -419 -423 -498
-728 -37 -143 -46 -369 -20 -521 89 -532 488 -940 1023 -1046 129 -25 356 -23
489 6 511 108 886 483 994 994 29 133 31 360 6 489 -105 531 -510 932 -1034
1023 -107 19 -331 18 -438 -1z m-70 -775 c31 -9 69 -39 168 -137 l127 -126
128 126 c98 97 136 128 167 137 113 31 224 -80 194 -194 -9 -31 -38 -67 -137
-167 l-126 -128 126 -127 c97 -99 128 -137 137 -168 31 -113 -80 -224 -194
-194 -31 9 -67 38 -167 137 l-128 126 -127 -126 c-99 -97 -137 -128 -168 -137
-113 -31 -224 80 -194 194 9 31 38 67 137 168 l126 127 -126 128 c-97 98 -128
136 -137 167 -21 78 25 162 104 190 49 17 42 17 90 4z"/>
<path d="M480 1538 c0 -345 7 -402 59 -511 156 -326 620 -583 1216 -671 290
-43 556 -46 862 -10 l53 6 -51 57 c-168 186 -304 474 -358 755 -12 59 -21 108
-21 110 0 2 -69 6 -152 10 -657 31 -1180 204 -1543 512 l-65 55 0 -313z"/>
</g>
</svg>
