<?xml version="1.0" standalone="no"?>
<!DOCTYPE svg PUBLIC "-//W3C//DTD SVG 20010904//EN"
 "http://www.w3.org/TR/2001/REC-SVG-20010904/DTD/svg10.dtd">
<svg version="1.0" xmlns="http://www.w3.org/2000/svg"
 width="512.000000pt" height="512.000000pt" viewBox="0 0 512.000000 512.000000"
 preserveAspectRatio="xMidYMid meet">

<g transform="translate(0.000000,512.000000) scale(0.100000,-0.100000)"
fill="#eeeeee" stroke="none">
<path d="M1290 4465 c-336 -68 -587 -329 -639 -665 -9 -55 -11 -395 -9 -1285
4 -1316 0 -1221 58 -1377 66 -177 261 -372 438 -438 155 -58 66 -55 1422 -55
1356 0 1267 -3 1422 55 178 66 372 260 438 438 57 152 55 117 55 909 0 723 0
732 -21 759 -39 53 -71 69 -134 69 -63 0 -95 -16 -134 -69 -21 -27 -21 -40
-26 -749 -5 -710 -5 -723 -27 -774 -66 -163 -181 -267 -340 -308 -86 -22
-2380 -22 -2466 0 -173 45 -307 178 -352 350 -22 88 -23 2381 0 2468 41 159
145 274 308 340 51 22 64 22 774 27 709 5 722 5 749 26 53 39 69 71 69 134 0
63 -16 95 -69 134 -27 21 -37 21 -739 23 -557 1 -726 -2 -777 -12z"/>
<path d="M3881 4464 c-130 -35 -118 -24 -1057 -947 -709 -698 -886 -877 -895
-906 -6 -23 -9 -138 -7 -313 3 -261 4 -278 24 -304 11 -15 33 -37 48 -48 26
-20 43 -21 304 -24 175 -2 290 1 313 7 29 9 208 186 906 895 928 944 913 927
948 1061 89 343 -242 671 -584 579z m207 -331 c63 -47 88 -125 61 -191 -9 -19
-343 -367 -834 -867 l-820 -835 -127 0 -128 0 0 128 0 127 835 820 c459 451
847 826 862 833 38 17 119 9 151 -15z"/>
</g>
</svg>
