<?xml version="1.0" standalone="no"?>
<!DOCTYPE svg PUBLIC "-//W3C//DTD SVG 20010904//EN"
 "http://www.w3.org/TR/2001/REC-SVG-20010904/DTD/svg10.dtd">
<svg version="1.0" xmlns="http://www.w3.org/2000/svg"
 width="512.000000pt" height="512.000000pt" viewBox="0 0 512.000000 512.000000"
 preserveAspectRatio="xMidYMid meet">

<g transform="translate(0.000000,512.000000) scale(0.100000,-0.100000)"
fill="#000000" stroke="none">
<path d="M860 4328 c-33 -17 -51 -35 -67 -68 -23 -44 -23 -44 -23 -578 l0
-534 -22 -6 c-13 -3 -58 -23 -101 -45 -139 -69 -246 -199 -303 -367 -26 -77
-26 -263 0 -340 57 -168 164 -298 303 -367 43 -22 88 -42 101 -45 l22 -6 0
-534 c0 -534 0 -534 23 -578 29 -58 92 -93 154 -87 46 5 104 42 125 80 10 17
14 155 18 571 l5 549 51 17 c175 60 331 234 379 425 19 76 19 214 0 290 -48
190 -202 363 -376 424 l-54 19 -5 549 c-4 415 -8 553 -18 570 -21 38 -79 75
-125 80 -31 3 -54 -2 -87 -19z m173 -1494 c156 -53 236 -249 163 -398 -89
-183 -329 -223 -472 -79 -148 148 -87 407 113 479 52 18 140 17 196 -2z"/>
<path d="M2410 4334 c-103 -27 -198 -81 -275 -158 -123 -121 -174 -235 -182
-406 -6 -124 9 -198 62 -306 66 -131 182 -238 315 -290 l70 -27 0 -1126 c0
-1077 1 -1128 19 -1161 55 -104 198 -116 269 -22 l27 35 3 1137 2 1137 59 22
c132 48 259 163 325 294 54 109 70 182 63 307 -8 171 -59 285 -182 406 -79 78
-174 132 -280 159 -74 19 -222 18 -295 -1z m254 -324 c105 -40 175 -135 184
-251 6 -85 -16 -152 -69 -212 -59 -68 -125 -97 -219 -97 -94 0 -160 29 -219
97 -53 60 -75 127 -69 212 14 197 207 320 392 251z"/>
<path d="M4125 4336 c-37 -16 -70 -52 -84 -89 -8 -19 -11 -288 -11 -836 l0
-808 -42 -13 c-61 -17 -104 -41 -174 -94 -146 -109 -233 -289 -234 -478 0
-103 14 -166 61 -267 54 -116 160 -223 279 -281 46 -22 90 -40 97 -40 10 0 13
-54 13 -265 0 -297 3 -313 64 -360 78 -59 189 -34 234 55 21 43 22 54 22 306
l0 262 38 12 c60 20 155 76 210 125 70 63 143 176 173 266 33 102 34 262 2
364 -56 178 -220 349 -379 396 l-44 13 0 806 0 806 -22 44 c-38 74 -130 108
-203 76z m186 -2053 c25 -11 65 -40 87 -64 135 -140 95 -374 -81 -466 -19 -10
-64 -18 -113 -21 -93 -5 -143 12 -207 68 -64 55 -90 111 -95 201 -4 74 -2 84
27 144 55 111 151 168 271 162 36 -2 86 -13 111 -24z"/>
</g>
</svg>
