<?xml version="1.0" standalone="no"?>
<!DOCTYPE svg PUBLIC "-//W3C//DTD SVG 20010904//EN"
 "http://www.w3.org/TR/2001/REC-SVG-20010904/DTD/svg10.dtd">
<svg version="1.0" xmlns="http://www.w3.org/2000/svg"
 width="512.000000pt" height="512.000000pt" viewBox="0 0 512.000000 512.000000"
 preserveAspectRatio="xMidYMid meet">

<g transform="translate(0.000000,512.000000) scale(0.100000,-0.100000)"
fill="#000000" stroke="none">
<path d="M2330 5109 c-491 -48 -924 -219 -1330 -523 -110 -82 -350 -317 -436
-426 -513 -651 -684 -1471 -473 -2268 84 -317 257 -659 473 -932 77 -97 299
-319 396 -396 663 -524 1514 -692 2320 -458 295 85 568 224 840 428 110 82
350 317 436 426 267 339 445 729 519 1140 59 326 59 594 0 920 -72 400 -229
753 -489 1100 -82 109 -317 350 -425 435 -374 294 -802 478 -1261 541 -133 18
-446 26 -570 13z m441 -419 c311 -32 615 -133 887 -294 289 -172 559 -442 736
-736 404 -671 407 -1519 8 -2188 -95 -159 -193 -285 -331 -423 -411 -410 -936
-628 -1511 -628 -573 0 -1103 220 -1510 628 -139 139 -238 266 -332 423 -397
666 -397 1517 2 2178 176 293 431 553 712 728 257 160 606 280 903 311 117 12
318 12 436 1z"/>
<path d="M1270 2757 c-71 -23 -140 -120 -140 -197 0 -83 71 -177 150 -198 35
-10 333 -12 1300 -10 1247 3 1255 3 1294 24 52 27 92 78 108 137 23 88 -23
187 -108 231 -39 21 -46 21 -1304 23 -908 1 -1275 -2 -1300 -10z"/>
</g>
</svg>
